<svg xmlns="http://www.w3.org/2000/svg" xmlns:xlink="http://www.w3.org/1999/xlink" width="500" zoomAndPan="magnify" viewBox="0 0 375 374.999991" height="500" preserveAspectRatio="xMidYMid meet" version="1.0"><defs><filter x="0%" y="0%" width="100%" height="100%" id="50482faf12"><feColorMatrix values="0 0 0 0 1 0 0 0 0 1 0 0 0 0 1 0 0 0 1 0" color-interpolation-filters="sRGB"/></filter><g/><mask id="d414a3b231"><g filter="url(#50482faf12)"><rect x="-37.5" width="450" fill="#000000" y="-37.499999" height="449.999989" fill-opacity="0.149"/></g></mask><clipPath id="b4734bdaed"><path d="M 1 98 L 338.839844 98 L 338.839844 140 L 1 140 Z M 1 98 " clip-rule="nonzero"/></clipPath><clipPath id="bf7b12fbbd"><path d="M 1 205 L 338.839844 205 L 338.839844 247 L 1 247 Z M 1 205 " clip-rule="nonzero"/></clipPath><clipPath id="0ebb92143e"><rect x="0" width="339" y="0" height="341"/></clipPath></defs><g mask="url(#d414a3b231)"><g transform="matrix(1, 0, 0, 1, 7, 17)"><g clip-path="url(#0ebb92143e)"><g clip-path="url(#b4734bdaed)"><path fill="#ff3900" d="M 318.101562 139.167969 L 21.722656 139.167969 C 10.558594 139.167969 1.503906 130.125 1.503906 118.945312 C 1.503906 107.777344 10.558594 98.734375 21.722656 98.734375 L 318.101562 98.734375 C 329.277344 98.734375 338.324219 107.777344 338.324219 118.945312 C 338.324219 130.125 329.277344 139.167969 318.101562 139.167969 " fill-opacity="1" fill-rule="nonzero"/></g><g clip-path="url(#bf7b12fbbd)"><path fill="#ff3900" d="M 318.101562 246.039062 L 21.722656 246.039062 C 10.558594 246.039062 1.503906 236.984375 1.503906 225.816406 C 1.503906 214.648438 10.558594 205.59375 21.722656 205.59375 L 318.101562 205.59375 C 329.277344 205.59375 338.324219 214.648438 338.324219 225.816406 C 338.324219 236.984375 329.277344 246.039062 318.101562 246.039062 " fill-opacity="1" fill-rule="nonzero"/></g><path fill="#ff3900" d="M 63.226562 339.632812 C 61.046875 339.632812 58.835938 339.277344 56.667969 338.542969 C 46.101562 334.914062 40.472656 323.410156 44.097656 312.84375 L 146.355469 14.730469 C 149.980469 4.164062 161.476562 -1.457031 172.042969 2.160156 C 182.609375 5.785156 188.238281 17.289062 184.613281 27.855469 L 82.355469 325.972656 C 79.476562 334.359375 71.625 339.632812 63.226562 339.632812 " fill-opacity="1" fill-rule="nonzero"/><path fill="#ff3900" d="M 175.6875 339.632812 C 173.519531 339.632812 171.304688 339.277344 169.128906 338.542969 C 158.5625 334.914062 152.941406 323.410156 156.558594 312.84375 L 258.828125 14.730469 C 262.453125 4.164062 273.949219 -1.457031 284.515625 2.160156 C 295.082031 5.785156 300.703125 17.289062 297.085938 27.855469 L 194.816406 325.972656 C 191.9375 334.359375 184.085938 339.632812 175.6875 339.632812 " fill-opacity="1" fill-rule="nonzero"/></g></g></g><g fill="#000000" fill-opacity="1"><g transform="translate(9.236457, 204.158658)"><g><path d="M 5.40625 -74.25 L 26.90625 -74.25 C 37.226562 -74.25 46.046875 -70.722656 53.359375 -63.671875 C 60.679688 -56.617188 64.34375 -47.785156 64.34375 -37.171875 C 64.34375 -26.492188 60.695312 -17.628906 53.40625 -10.578125 C 46.125 -3.523438 37.289062 0 26.90625 0 L 5.40625 0 Z M 22.3125 -15.125 L 24.9375 -15.125 C 31.113281 -15.125 36.164062 -17.207031 40.09375 -21.375 C 44.019531 -25.539062 46.015625 -30.773438 46.078125 -37.078125 C 46.078125 -43.378906 44.113281 -48.628906 40.1875 -52.828125 C 36.257812 -57.023438 31.175781 -59.125 24.9375 -59.125 L 22.3125 -59.125 Z M 22.3125 -15.125 "/></g></g></g><g fill="#000000" fill-opacity="1"><g transform="translate(75.656394, 204.158658)"><g><path d="M 6.921875 -71.90625 C 8.785156 -73.769531 11.003906 -74.703125 13.578125 -74.703125 C 16.160156 -74.703125 18.382812 -73.769531 20.25 -71.90625 C 22.113281 -70.050781 23.046875 -67.832031 23.046875 -65.25 C 23.046875 -62.664062 22.113281 -60.441406 20.25 -58.578125 C 18.382812 -56.722656 16.160156 -55.796875 13.578125 -55.796875 C 11.003906 -55.796875 8.785156 -56.722656 6.921875 -58.578125 C 5.066406 -60.441406 4.140625 -62.664062 4.140625 -65.25 C 4.140625 -67.832031 5.066406 -70.050781 6.921875 -71.90625 Z M 5.40625 -46.171875 L 5.40625 0 L 21.328125 0 L 21.328125 -46.171875 Z M 5.40625 -46.171875 "/></g></g></g><g fill="#000000" fill-opacity="1"><g transform="translate(102.836362, 204.158658)"><g><path d="M 32.765625 -75.59375 C 36.785156 -75.59375 40.710938 -75.007812 44.546875 -73.84375 C 48.390625 -72.675781 51.238281 -71.519531 53.09375 -70.375 L 55.796875 -68.578125 L 48.953125 -55.078125 C 48.421875 -55.441406 47.671875 -55.90625 46.703125 -56.46875 C 45.742188 -57.039062 43.941406 -57.804688 41.296875 -58.765625 C 38.660156 -59.722656 36.207031 -60.203125 33.9375 -60.203125 C 31.113281 -60.203125 28.9375 -59.601562 27.40625 -58.40625 C 25.875 -57.207031 25.109375 -55.585938 25.109375 -53.546875 C 25.109375 -52.523438 25.46875 -51.578125 26.1875 -50.703125 C 26.90625 -49.835938 28.132812 -48.910156 29.875 -47.921875 C 31.613281 -46.929688 33.144531 -46.132812 34.46875 -45.53125 C 35.789062 -44.9375 37.832031 -44.039062 40.59375 -42.84375 C 45.394531 -40.800781 49.488281 -38.023438 52.875 -34.515625 C 56.257812 -31.003906 57.953125 -27.03125 57.953125 -22.59375 C 57.953125 -18.332031 57.1875 -14.609375 55.65625 -11.421875 C 54.132812 -8.242188 52.035156 -5.753906 49.359375 -3.953125 C 46.691406 -2.160156 43.738281 -0.832031 40.5 0.03125 C 37.257812 0.90625 33.75 1.34375 29.96875 1.34375 C 26.726562 1.34375 23.546875 1.015625 20.421875 0.359375 C 17.304688 -0.296875 14.695312 -1.117188 12.59375 -2.109375 C 10.5 -3.097656 8.609375 -4.070312 6.921875 -5.03125 C 5.242188 -6 4.015625 -6.8125 3.234375 -7.46875 L 2.0625 -8.453125 L 10.53125 -22.6875 C 11.25 -22.082031 12.238281 -21.3125 13.5 -20.375 C 14.757812 -19.445312 16.992188 -18.203125 20.203125 -16.640625 C 23.410156 -15.085938 26.242188 -14.3125 28.703125 -14.3125 C 35.847656 -14.3125 39.421875 -16.738281 39.421875 -21.59375 C 39.421875 -22.613281 39.164062 -23.554688 38.65625 -24.421875 C 38.144531 -25.296875 37.242188 -26.164062 35.953125 -27.03125 C 34.660156 -27.90625 33.519531 -28.597656 32.53125 -29.109375 C 31.539062 -29.617188 29.921875 -30.398438 27.671875 -31.453125 C 25.421875 -32.503906 23.757812 -33.300781 22.6875 -33.84375 C 18.1875 -36.0625 14.703125 -38.832031 12.234375 -42.15625 C 9.773438 -45.488281 8.546875 -49.078125 8.546875 -52.921875 C 8.546875 -59.578125 11.003906 -65.019531 15.921875 -69.25 C 20.847656 -73.476562 26.460938 -75.59375 32.765625 -75.59375 Z M 32.765625 -75.59375 "/></g></g></g><g fill="#000000" fill-opacity="1"><g transform="translate(163.3163, 204.158658)"><g><path d="M 52.109375 -20.875 L 18.625 -20.875 C 18.625 -17.632812 19.675781 -15.234375 21.78125 -13.671875 C 23.882812 -12.117188 26.164062 -11.34375 28.625 -11.34375 C 31.195312 -11.34375 33.234375 -11.6875 34.734375 -12.375 C 36.234375 -13.0625 37.945312 -14.425781 39.875 -16.46875 L 51.390625 -10.703125 C 46.585938 -2.671875 38.609375 1.34375 27.453125 1.34375 C 20.492188 1.34375 14.519531 -1.035156 9.53125 -5.796875 C 4.550781 -10.566406 2.0625 -16.3125 2.0625 -23.03125 C 2.0625 -29.757812 4.550781 -35.519531 9.53125 -40.3125 C 14.519531 -45.113281 20.492188 -47.515625 27.453125 -47.515625 C 34.773438 -47.515625 40.726562 -45.398438 45.3125 -41.171875 C 49.90625 -36.941406 52.203125 -30.898438 52.203125 -23.046875 C 52.203125 -21.960938 52.171875 -21.238281 52.109375 -20.875 Z M 19.078125 -29.703125 L 36.625 -29.703125 C 36.269531 -32.097656 35.328125 -33.941406 33.796875 -35.234375 C 32.265625 -36.523438 30.300781 -37.171875 27.90625 -37.171875 C 25.257812 -37.171875 23.15625 -36.476562 21.59375 -35.09375 C 20.039062 -33.71875 19.203125 -31.921875 19.078125 -29.703125 Z M 19.078125 -29.703125 "/></g></g></g><g fill="#000000" fill-opacity="1"><g transform="translate(217.586251, 204.158658)"><g><path d="M 33.75 0 L 22.953125 0 L -1.796875 -46.171875 L 16.5625 -46.171875 L 27.8125 -21.234375 L 38.875 -46.171875 L 49.859375 -46.171875 L 60.9375 -21.234375 L 72.1875 -46.171875 L 90.546875 -46.171875 L 65.796875 0 L 54.984375 0 L 44.375 -23.84375 Z M 33.75 0 "/></g></g></g><g fill="#000000" fill-opacity="1"><g transform="translate(306.326159, 204.158658)"><g><path d="M 8.546875 -5.71875 C 4.222656 -10.425781 2.0625 -16.195312 2.0625 -23.03125 C 2.0625 -29.875 4.222656 -35.664062 8.546875 -40.40625 C 12.867188 -45.144531 18.359375 -47.515625 25.015625 -47.515625 C 31.140625 -47.515625 36.179688 -45.597656 40.140625 -41.765625 L 40.140625 -46.171875 L 56.0625 -46.171875 L 56.0625 0 L 40.3125 0 L 40.3125 -5.21875 L 40.140625 -5.21875 C 36.179688 -0.84375 31.140625 1.34375 25.015625 1.34375 C 18.359375 1.34375 12.867188 -1.007812 8.546875 -5.71875 Z M 22.09375 -30.875 C 20.019531 -28.832031 18.984375 -26.21875 18.984375 -23.03125 C 18.984375 -19.851562 19.972656 -17.257812 21.953125 -15.25 C 23.941406 -13.238281 26.554688 -12.234375 29.796875 -12.234375 C 32.910156 -12.234375 35.472656 -13.253906 37.484375 -15.296875 C 39.492188 -17.335938 40.5 -19.921875 40.5 -23.046875 C 40.5 -26.222656 39.460938 -28.832031 37.390625 -30.875 C 35.328125 -32.914062 32.796875 -33.9375 29.796875 -33.9375 C 26.734375 -33.9375 24.164062 -32.914062 22.09375 -30.875 Z M 22.09375 -30.875 "/></g></g></g><g fill="#000000" fill-opacity="1"><g transform="translate(9.236457, 283.658653)"><g><path d="M 15.65625 -19.265625 C 18.539062 -19.265625 20.988281 -18.257812 23 -16.25 C 25.007812 -14.238281 26.015625 -11.789062 26.015625 -8.90625 C 26.015625 -6.09375 25.007812 -3.679688 23 -1.671875 C 20.988281 0.335938 18.539062 1.34375 15.65625 1.34375 C 12.84375 1.34375 10.429688 0.335938 8.421875 -1.671875 C 6.410156 -3.679688 5.40625 -6.09375 5.40625 -8.90625 C 5.40625 -11.789062 6.410156 -14.238281 8.421875 -16.25 C 10.429688 -18.257812 12.84375 -19.265625 15.65625 -19.265625 Z M 15.65625 -19.265625 "/></g></g></g><g fill="#000000" fill-opacity="1"><g transform="translate(40.646424, 283.658653)"><g><path d="M 6.921875 -71.90625 C 8.785156 -73.769531 11.003906 -74.703125 13.578125 -74.703125 C 16.160156 -74.703125 18.382812 -73.769531 20.25 -71.90625 C 22.113281 -70.050781 23.046875 -67.832031 23.046875 -65.25 C 23.046875 -62.664062 22.113281 -60.441406 20.25 -58.578125 C 18.382812 -56.722656 16.160156 -55.796875 13.578125 -55.796875 C 11.003906 -55.796875 8.785156 -56.722656 6.921875 -58.578125 C 5.066406 -60.441406 4.140625 -62.664062 4.140625 -65.25 C 4.140625 -67.832031 5.066406 -70.050781 6.921875 -71.90625 Z M 5.40625 -46.171875 L 5.40625 0 L 21.328125 0 L 21.328125 -46.171875 Z M 5.40625 -46.171875 "/></g></g></g><g fill="#000000" fill-opacity="1"><g transform="translate(67.826393, 283.658653)"><g><path d="M 8.546875 -5.71875 C 4.222656 -10.425781 2.0625 -16.195312 2.0625 -23.03125 C 2.0625 -29.875 4.222656 -35.664062 8.546875 -40.40625 C 12.867188 -45.144531 18.359375 -47.515625 25.015625 -47.515625 C 31.140625 -47.515625 36.179688 -45.597656 40.140625 -41.765625 L 40.140625 -77.40625 L 56.0625 -77.40625 L 56.0625 0 L 40.3125 0 L 40.3125 -5.21875 L 40.140625 -5.21875 C 36.179688 -0.84375 31.140625 1.34375 25.015625 1.34375 C 18.359375 1.34375 12.867188 -1.007812 8.546875 -5.71875 Z M 22.09375 -30.875 C 20.019531 -28.832031 18.984375 -26.21875 18.984375 -23.03125 C 18.984375 -19.851562 19.972656 -17.257812 21.953125 -15.25 C 23.941406 -13.238281 26.554688 -12.234375 29.796875 -12.234375 C 32.910156 -12.234375 35.472656 -13.253906 37.484375 -15.296875 C 39.492188 -17.335938 40.5 -19.921875 40.5 -23.046875 C 40.5 -26.222656 39.460938 -28.832031 37.390625 -30.875 C 35.328125 -32.914062 32.796875 -33.9375 29.796875 -33.9375 C 26.734375 -33.9375 24.164062 -32.914062 22.09375 -30.875 Z M 22.09375 -30.875 "/></g></g></g></svg>